<svg width="84" height="56" viewBox="0 0 84 56" fill="none" xmlns="http://www.w3.org/2000/svg">
<path d="M83.4872 26.7627L57.2373 0.512736C56.5536 -0.170912 55.4462 -0.170912 54.7627 0.512736C54.0791 1.19639 54.0791 2.30381 54.7627 2.98729L78.0254 26.25H1.75005C0.782742 26.25 0 27.0328 0 28.0001C0 28.9674 0.782742 29.7502 1.75005 29.7502H78.0254L54.7627 53.0128C54.0791 53.6964 54.0791 54.8038 54.7627 55.4873C55.1045 55.829 55.5523 56 56.0001 56C56.4478 56 56.8955 55.829 57.2374 55.4873L83.4874 29.2373C84.1709 28.5538 84.1709 27.4464 83.4872 26.7627Z" fill="black"/>
</svg>
