<svg width="84" height="56" viewBox="0 0 84 56" fill="none" xmlns="http://www.w3.org/2000/svg">
<path d="M0.512759 29.2372L26.7627 55.4873C27.4464 56.1709 28.5538 56.1709 29.2373 55.4873C29.9209 54.8036 29.9209 53.6962 29.2373 53.0127L5.97456 29.7499L82.2499 29.75C83.2173 29.75 84 28.9672 84 27.9999C84 27.0326 83.2173 26.2498 82.2499 26.2498L5.97456 26.2498L29.2373 2.98724C29.9209 2.30359 29.9209 1.19617 29.2373 0.512691C28.8956 0.170947 28.4477 -8.67124e-06 27.9999 -8.71038e-06C27.5522 -8.74952e-06 27.1045 0.170947 26.7626 0.51269L0.512591 26.7627C-0.170888 27.4462 -0.170888 28.5536 0.512759 29.2372Z" fill="black"/>
</svg>
