<svg width="24" height="24" viewBox="0 0 24 24" fill="none" xmlns="http://www.w3.org/2000/svg">
<path d="M17.3787 0H6.6213C2.9645 0 0 2.9645 0 6.6213V17.3787C0 21.0355 2.9645 24 6.6213 24H17.3787C21.0355 24 24 21.0355 24 17.3787V6.6213C24 2.9645 21.0355 0 17.3787 0ZM21.8698 17.3787C21.8698 19.8639 19.8462 21.8698 17.3787 21.8698H6.6213C4.13609 21.8698 2.13018 19.8462 2.13018 17.3787V6.6213C2.13018 4.15385 4.15385 2.13018 6.6213 2.13018H17.3787C19.8639 2.13018 21.8698 4.15385 21.8698 6.6213V17.3787Z" fill="white"/>
<path d="M12 5.82251C8.59167 5.82251 5.80469 8.59174 5.80469 12C5.80469 15.4083 8.57392 18.1953 12 18.1953C15.4082 18.1953 18.1952 15.4261 18.1952 12C18.1952 8.59174 15.4082 5.82251 12 5.82251ZM12 16.0651C9.76327 16.0651 7.93486 14.2545 7.93486 12.0178C7.95262 9.76334 9.76327 7.95269 12 7.95269C14.2366 7.95269 16.065 9.76334 16.065 12C16.065 14.2367 14.2366 16.0651 12 16.0651Z" fill="white"/>
<path d="M18.4438 4.01196C18.0355 4.01196 17.6272 4.17173 17.3432 4.4735C17.0592 4.75753 16.8817 5.16581 16.8817 5.57409C16.8817 5.98238 17.0414 6.39066 17.3432 6.67468C17.6272 6.95871 18.0355 7.13622 18.4438 7.13622C18.8521 7.13622 19.2604 6.97646 19.5444 6.67468C19.8284 6.39066 20.0059 5.98238 20.0059 5.57409C20.0059 5.16581 19.8461 4.75753 19.5444 4.4735C19.2604 4.17173 18.8698 4.01196 18.4438 4.01196Z" fill="white"/>
</svg>
