<svg width="24" height="24" viewBox="0 0 24 24" fill="none" xmlns="http://www.w3.org/2000/svg">
<path d="M22.2333 0H1.76667C0.8 0 0 0.766667 0 1.73333V22.3C0 23.2333 0.8 24 1.76667 24H22.2333C23.2 24 24 23.2333 24 22.2667V1.73333C24 0.766667 23.2 0 22.2333 0ZM7.26667 20.1H3.63333V9.26667H7.26667V20.1ZM5.46667 7.76667C4.23333 7.76667 3.43333 6.93333 3.43333 5.9C3.43333 4.83333 4.23333 4.03333 5.5 4.03333C6.73333 4.03333 7.5 4.83333 7.53333 5.9C7.5 6.93333 6.73333 7.76667 5.46667 7.76667ZM20.3333 20.1H16.7333V14.3C16.7333 12.8333 16.2 11.8333 14.9 11.8333C13.9 11.8333 13.3 12.5 13.0333 13.1667C12.9333 13.4 12.9 13.7333 12.9 14.0333V20.1H9.26667C9.26667 20.1 9.3 10.2667 9.26667 9.26667H12.9V10.8C13.3667 10.0667 14.2333 9 16.1667 9C18.5667 9 20.3333 10.5333 20.3333 13.8667V20.1ZM12.8667 10.8333C12.8667 10.8333 12.8667 10.8 12.9 10.8L12.8667 10.8333Z" fill="white"/>
</svg>
