<svg width="24" height="22" viewBox="0 0 24 22" fill="none" xmlns="http://www.w3.org/2000/svg">
<path d="M24 2.85601C23.0625 3.24868 22.125 3.64135 21.1875 3.64135C22.125 3.05234 23.0625 2.07067 23.4375 0.696334C22.5 1.28534 21.375 1.678 20.25 1.87434C19.3125 1.089 18 0.5 16.6875 0.5C13.875 0.5 11.625 2.85601 11.625 5.60469C11.625 5.99735 11.625 6.39002 11.8125 6.78269C7.6875 6.58636 4.125 4.62302 1.6875 1.48167C1.3125 2.26701 0.9375 3.05234 0.9375 4.03401C0.9375 5.80102 1.875 7.37169 3.1875 8.35336C2.4375 8.35336 1.6875 8.15703 0.9375 7.76436C0.9375 10.3167 2.625 12.28 4.875 12.869C4.5 12.869 4.125 13.0654 3.5625 13.0654C3.1875 13.0654 3 13.0654 2.625 13.0654C3.1875 15.0287 5.0625 16.5994 7.3125 16.5994C5.625 17.7774 3.5625 18.7591 1.125 18.7591C0.75 18.7591 0.375 18.7591 0 18.7591C2.25 20.1334 4.6875 21.1151 7.5 21.1151C16.5 21.1151 21.5625 13.2617 21.5625 6.39002V5.80102C22.5 4.81935 23.25 4.03401 24 2.85601Z" fill="white"/>
</svg>
